<svg xmlns="http://www.w3.org/2000/svg">
<!--antenna_icon-->
<symbol id="antenna">
<path fill="#2e2f42" d="M984.741 707.123 714.559 434.961l29.986-147.696a68.07 68.07 0 0 0 24.269 4.659h.205c38.154.451 69.446-30.112 69.899-68.264s-30.112-69.446-68.264-69.899c-38.154-.45-69.446 30.112-69.899 68.265a69.062 69.062 0 0 0 3.992 23.971l-158.72 19.371L287.125 5.118a17.06 17.06 0 0 0-12.05-5.12 17.063 17.063 0 0 0-11.946 4.966l-48.402 48.128c-6.662 6.664-6.662 17.468 0 24.132l26.043 26.419c-100.897 185.533-68.125 415.29 80.624 565.213a16.213 16.213 0 0 0 4.675 3.123 99.103 99.103 0 0 0-1.672 17.51v197.974h-204.8c-47.104.054-85.278 38.229-85.333 85.333v34.133c0 9.426 7.642 17.067 17.067 17.067h785.066c9.426 0 17.067-7.642 17.067-17.067v-34.133c-.056-47.104-38.229-85.278-85.333-85.333h-204.8v-87.741a480.887 480.887 0 0 0 97.552 10.24 475.183 475.183 0 0 0 225.28-57.07l26.181 26.334a17.07 17.07 0 0 0 12.05 5.12 17.072 17.072 0 0 0 11.946-4.966l48.402-48.128c6.662-6.666 6.662-17.469 0-24.133zM744.954 199.458c13.366-13.294 34.979-13.235 48.272.131s13.235 34.978-.131 48.27a34.137 34.137 0 0 1-24.078 9.933h-.102c-18.85-.098-34.054-15.458-33.957-34.31a34.14 34.14 0 0 1 10.064-24.024h-.067zm-40.175 112.145-19.149 94.259-37.616-37.837 56.765-56.422zm-19.387-28.859-61.44 61.082-47.531-47.787 108.971-13.294zM768.131 921.6c28.277 0 51.2 22.923 51.2 51.2v17.067H68.397V972.8c0-28.277 22.923-51.2 51.2-51.2h648.534zm-238.934-68.267v34.134H358.53v-34.134h170.667zM358.53 819.2V689.493c0-41.403 38.282-75.093 85.334-75.093s85.333 33.69 85.333 75.093V819.2H358.53zm204.801-54.272v-75.435c0-60.227-53.59-109.226-119.467-109.226-42.595-.653-82.424 21.027-104.995 57.155-129.846-136.762-159.086-340.646-72.915-508.388l595.259 598.671a442.268 442.268 0 0 1-297.882 37.222zm361.25-21.88L250.754 65.263l24.15-24.064 253.917 255.352c.12 0 .189.222.309.307l419.669 422.126-24.218 24.064z"/><path fill="#4d5ae5" d="M444.018 648.533h-.154c-28.277-.043-51.234 22.846-51.277 51.123s22.846 51.234 51.123 51.277h.154c28.277.043 51.234-22.846 51.277-51.123.042-28.277-22.846-51.234-51.123-51.277zm11.947 63.301a17.078 17.078 0 0 1-12.101 4.966c-9.426-.05-17.026-7.73-16.978-17.155a17.086 17.086 0 0 1 5.03-12.013 17.078 17.078 0 0 1 11.947-4.966c9.426.05 17.026 7.73 16.978 17.155a17.086 17.086 0 0 1-5.03 12.013h.154z"/>
</symbol>
<!--clock-icon-->
<symbol id="clock">
<path fill="#2e2f42" d="M1001.493 489.64C1001.439 219.165 782.125-.055 511.64 0 241.165.055 21.945 219.374 22 489.851c.047 213.054 137.82 401.634 340.781 466.438 1.938.61 3.954.922 5.978.914a21.614 21.614 0 0 0 10.96-3 20.403 20.403 0 0 0 9.062-11.406l123.68-392c33.813-.171 61.078-27.726 60.899-61.531-.173-33.813-27.72-61.078-61.531-60.906a60.387 60.387 0 0 0-26.243 6.125l-163.39-163.414c-8.109-7.829-21.024-7.602-28.851.499-7.642 7.915-7.642 20.446 0 28.36l163.304 163.493c-12.531 25.578-5.366 56.453 17.165 73.89L355.969 910.844C123.079 825.055 3.829 566.719 89.618 333.83 175.407 100.939 433.743-18.311 666.634 67.478s352.139 344.133 266.35 577.016a449.389 449.389 0 0 1-238.789 255.147l-12.734-59.976c-2.328-11.024-13.163-18.07-24.187-15.734a20.508 20.508 0 0 0-9.36 4.742L525.133 938.291c-8.422 7.491-9.171 20.39-1.672 28.813a20.48 20.48 0 0 0 9.062 5.882l156.758 50.032c10.726 3.445 22.219-2.453 25.664-13.187 1.093-3.39 1.274-7 .539-10.485l-12.515-58.851c181.258-76.414 298.944-254.149 298.523-450.853zM511.75 469.235c11.266 0 20.406 9.139 20.406 20.405 0 11.274-9.141 20.406-20.406 20.406-11.274 0-20.406-9.133-20.406-20.406 0-11.266 9.133-20.405 20.406-20.405zm67.212 475.648 69.89-62.344 19.29 90.891-89.179-28.547z"/><path fill="#4d5ae5" d="M491.344 101.922v40.812c0 11.273 9.133 20.406 20.406 20.406 11.266 0 20.406-9.133 20.406-20.406v-40.812c0-11.266-9.141-20.406-20.406-20.406-11.274 0-20.406 9.141-20.406 20.406zM124.031 469.234c-11.273 0-20.406 9.141-20.406 20.406 0 11.274 9.133 20.406 20.406 20.406h40.812c11.274 0 20.406-9.133 20.406-20.406 0-11.266-9.133-20.406-20.406-20.406h-40.812zM899.459 510.046c11.274 0 20.406-9.133 20.406-20.406 0-11.266-9.133-20.406-20.406-20.406h-40.811c-11.266 0-20.406 9.141-20.406 20.406 0 11.274 9.141 20.406 20.406 20.406h40.811z"/>
</symbol>
<!--diagram_icon-->
<symbol id="diagram">
<path fill="#4d5ae5" d="M477.616 478.867h34.117v153.52h-34.117v-153.52zM614.078 547.098h34.115v85.29h-34.115v-85.29zM341.155 598.272h34.115v34.115h-34.115v-34.115zM238.808 581.213h34.115v51.173h-34.115v-51.173z"/><path fill="#2e2f42" d="M51.173 905.31h818.771c28.261 0 51.174-22.912 51.174-51.173v-68.23c0-28.261-22.914-51.173-51.174-51.173h-17.058V309.348l96.891-91.786c22.488 11.085 49.707 4.355 64.424-15.958 14.726-20.306 12.661-48.267-4.88-66.191s-45.443-20.598-66.074-6.33c-20.622 14.276-27.952 41.337-17.358 64.066l-73.003 69.206V223c0-28.261-22.912-51.173-51.173-51.173H119.404c-28.26 0-51.173 22.912-51.173 51.173v511.733H51.173C22.913 734.733 0 757.645 0 785.906v68.23c0 28.261 22.913 51.173 51.173 51.173zm921.118-750.539c9.419 0 17.058 7.637 17.058 17.058 0 9.419-7.638 17.058-17.058 17.058-9.421 0-17.058-7.638-17.058-17.058 0-9.421 7.637-17.058 17.058-17.058zm-869.945 68.231c0-9.419 7.638-17.058 17.058-17.058h682.309c9.419 0 17.058 7.638 17.058 17.058v71.637l-34.115 32.418v-69.939c0-9.419-7.638-17.058-17.058-17.058H153.519c-9.42 0-17.058 7.638-17.058 17.058v426.443c0 9.421 7.638 17.058 17.058 17.058h614.079c9.419 0 17.058-7.637 17.058-17.058V373.982l34.115-32.325v393.078H102.346V223.002zm153.52 221.75c-23.078-.066-43.344 15.309-49.482 37.555-6.139 22.246 3.365 45.843 23.213 57.621 19.84 11.776 45.118 8.819 61.701-7.23l59.294 29.752c6.888 3.448 15.242 1.832 20.363-3.923l126.043-141.802 123.901 92.843c6.646 4.981 15.926 4.448 21.955-1.258L750.54 406.305v260.197H170.577V274.174H750.54v85.131l-120.688 114.29-124.942-93.667c-7.096-5.314-17.083-4.315-22.979 2.307L354.157 526.001l-47.768-23.888c.35-2.048.566-4.114.651-6.189 0-28.259-22.914-51.173-51.174-51.173zm17.057 51.173c0 9.421-7.637 17.059-17.058 17.059-9.419 0-17.058-7.638-17.058-17.059 0-9.419 7.638-17.058 17.058-17.058 9.421 0 17.058 7.638 17.058 17.058zM375.27 768.85h170.578v17.058c0 9.419-7.638 17.058-17.058 17.058H392.328c-9.421 0-17.058-7.638-17.058-17.058V768.85zM34.116 785.907c0-9.421 7.638-17.058 17.058-17.058h289.982v17.058c0 28.261 22.912 51.173 51.173 51.173h136.462c28.259 0 51.173-22.912 51.173-51.173v-17.058h289.981c9.421 0 17.058 7.637 17.058 17.058v68.23c0 9.421-7.637 17.058-17.058 17.058H51.174c-9.42 0-17.058-7.637-17.058-17.058v-68.23z"/>
</symbol>
<!--asronaut_icon-->
<symbol id="astronaut">
<path fill="#4d5ae5" d="M1023.17 144.77a17.087 17.087 0 0 0-13.773-11.606l-61.133-8.892-27.358-55.399c-5.733-11.674-24.866-11.674-30.6 0l-27.358 55.399-61.134 8.894a17.106 17.106 0 0 0-13.79 11.606c-1.997 6.178-.342 12.97 4.318 17.494l44.254 43.13-10.445 60.894a17.11 17.11 0 0 0 6.776 16.693c5.309 3.858 12.237 4.334 17.989 1.296l54.683-28.758 54.683 28.758a17.08 17.08 0 0 0 7.954 1.962c3.531 0 7.066-1.091 10.035-3.259a17.042 17.042 0 0 0 6.776-16.693l-10.443-60.894 44.254-43.13a17.115 17.115 0 0 0 4.312-17.494zm-78.813 42.462a17.07 17.07 0 0 0-4.898 15.106l6.109 35.651-32.016-16.827c-2.491-1.315-5.222-1.963-7.954-1.963s-5.445.648-7.955 1.963l-32.018 16.827 6.11-35.651a17.087 17.087 0 0 0-4.899-15.106l-25.923-25.258 35.806-5.206a17.058 17.058 0 0 0 12.851-9.336l16.01-32.426 16.008 32.426a17.063 17.063 0 0 0 12.851 9.336l35.806 5.206-25.89 25.258zM836.27 656.71h-34.134v34.134h34.134V656.71zM836.27 724.979h-34.134v34.134h34.134v-34.134zM870.405 690.845h-34.134v34.134h34.134v-34.134zM802.139 690.845h-34.134v34.134h34.134v-34.134zM716.803 844.448h-34.134v34.133h34.134v-34.133zM716.803 912.714h-34.134v34.136h34.134v-34.136zM750.938 878.581h-34.134v34.136h34.134v-34.136zM682.669 878.581h-34.134v34.136h34.134v-34.136zM512 776.181h-34.134v34.134H512v-34.134zM512 844.448h-34.134v34.133H512v-34.133zM546.134 810.312H512v34.134h34.134v-34.134zM477.866 810.312h-34.134v34.134h34.134v-34.134zM187.728 195.902h-34.134v34.134h34.134v-34.134zM187.728 264.173h-34.134v34.134h34.134v-34.134zM221.861 230.038h-34.134v34.134h34.134v-34.134zM153.594 230.038H119.46v34.134h34.134v-34.134z"/><path fill="#2e2f42" d="M790.872 453.102c-9.198-12.408-22.698-20.394-38.024-22.546-15.394-2.184-30.584 1.859-42.874 11.264L669.9 472.54l-60.725 45.347-43.453-17.306c77.483-34.765 131.638-112.266 131.638-202.243 0-122.336-99.928-221.87-222.758-221.87s-222.755 99.534-222.755 221.87c0 44.341 13.261 85.573 35.84 120.269l-88.442-.768h-.154c-.274 0-.494.136-.75.155-1.69.067-3.346.41-4.965.989-.411.155-.837.24-1.229.427-.203.085-.41.101-.614.203L88.074 470.695c-.018 0-.034 0-.034.016l-60.589 29.136a13.22 13.22 0 0 0-2.014 1.126c-24.15 16.075-32.377 47.65-19.148 73.454 7.048 13.722 19.046 23.827 33.792 28.451a57.863 57.863 0 0 0 17.254 2.645c9.268 0 18.45-2.269 26.862-6.757l44.409-23.621 72.45-37.411 43.418-.256L70.34 710.777c-.016.018-.034.018-.052.034l-42.839 42.667c-10.12 10.07-15.684 23.432-15.684 37.685 0 14.234 5.564 27.63 15.684 37.718 10.394 10.342 24.064 15.53 37.735 15.53 13.688 0 27.34-5.187 37.769-15.53l42.053-41.883 55.707-41.592 28.826 28.706-56.373 56.133c-.016.019-.034.019-.051.035l-42.839 42.666c-10.12 10.07-15.684 23.432-15.684 37.685 0 14.234 5.564 27.63 15.684 37.718 10.394 10.342 24.082 15.531 37.753 15.531s27.358-5.189 37.768-15.531L317.21 837.416c.018-.019.018-.035.034-.053l32.309-32-.12-.12c.203-.205.493-.275.699-.494l165.31-181.062 111.072 15.803c.802.12 1.605.171 2.406.171 2.066 0 4.062-.494 5.99-1.229.563-.203 1.058-.478 1.587-.75.614-.307 1.262-.477 1.845-.869l102.827-68.267c.376-.256.581-.667.938-.939.411-.323.923-.459 1.296-.819l40.686-38.11c21.171-19.837 24.09-52.331 6.782-75.576zM68.173 568.645c-5.546 2.97-11.844 3.566-17.868 1.656-5.974-1.861-10.82-5.941-13.654-11.453-5.154-10.035-2.168-22.256 6.86-28.859l42.037-20.226 14.37 42.002-31.744 16.88zm111.909-58.487-49.546 25.6-14.044-41.064 64.855-32.019-1.266 47.483zm483.18-211.854c0 29.389-7.014 57.107-19.166 81.904l-133.803-60.774c-1.402-18.347-10.923-34.406-25.226-44.41l46.85-155.53c76.085 24.202 131.346 95.183 131.346 178.81zm-377.246 0c0-103.51 84.618-187.736 188.624-187.736 8.09 0 16.008.682 23.842 1.672l-45.824 152.119c-.614-.018-1.195-.189-1.827-.189-33.042 0-59.922 26.795-59.922 59.736 0 32.938 26.88 59.734 59.922 59.734 22.221 0 41.421-12.27 51.781-30.227l123.598 56.152c-34.39 46.285-89.43 76.477-151.573 76.477-104.003 0-188.621-84.226-188.621-187.738zm190.603 25.602c0 14.114-11.571 25.6-25.789 25.6-14.216 0-25.787-11.486-25.787-25.6s11.571-25.602 25.787-25.602c14.218 0 25.789 11.486 25.789 25.602zM78.875 804.68c-7.56 7.493-19.798 7.477-27.34.018-3.636-3.635-5.632-8.429-5.632-13.533 0-5.086 1.996-9.883 5.632-13.483l30.786-30.67 27.238 27.12-30.684 30.549zm102.843 119.47c-7.56 7.491-19.814 7.51-27.358.018-3.636-3.635-5.632-8.43-5.632-13.534 0-5.086 1.996-9.882 5.632-13.482l30.806-30.686 27.258 27.12-30.706 30.565zm111.415-111.003c-.018.016-.034.016-.053.034l-56.474 56.32-27.258-27.12 56.424-56.166v-.016c.018-.018.034-.018.051-.034 1.28-1.28 2.082-2.816 2.869-4.334.221-.445.648-.821.835-1.28.53-1.314.614-2.73.821-4.115.101-.786.443-1.517.443-2.322 0-1.144-.41-2.251-.648-3.379-.203-1.024-.203-2.067-.598-3.054-.648-1.605-1.757-3.021-2.917-4.405-.325-.376-.445-.853-.803-1.211h-.018c-.018-.016-.018-.053-.034-.069l-51.422-51.2c-.547-.546-1.246-.768-1.861-1.229-.904-.699-1.774-1.347-2.782-1.843-.971-.478-1.962-.768-2.986-1.042-1.091-.309-2.15-.547-3.294-.632-1.042-.069-2.014.034-3.054.154-1.144.136-2.218.29-3.328.648-1.075.342-2.029.87-3.019 1.434-.632.358-1.349.478-1.946.922l-56.748 42.362-28.826-28.707 76.768-76.357 139.539 137.237-29.682 29.406zm218.201-224.534c-.494-.067-.957.12-1.45.086-1.246-.069-2.44.018-3.686.222-.973.17-1.894.357-2.816.682-1.093.376-2.083.888-3.091 1.502-.955.579-1.826 1.194-2.661 1.962-.411.358-.904.53-1.28.938L346.004 758.667 207.506 622.456l90.659-90.182c6.674-6.656 6.709-17.459.053-24.15-3.363-3.362-7.782-5.018-12.203-5v-.016l-70.998.427.888-51.44 99.33.854c40.483 41.405 96.939 67.227 159.405 67.227 13.994 0 27.648-1.45 40.942-3.926 1.28 1.024 2.542 2.067 4.147 2.715l77.11 30.72 4.88 24.269 5.699 28.33-96.085-13.67zm129.316 5.701-10.018-49.853 46.285-34.562 30.294 40.21-66.562 44.205zm120.116-90.592-26.813 25.123-29.798-39.562 26.606-20.394c4.966-3.822 11.23-5.376 17.374-4.574 6.178.87 11.64 4.096 15.36 9.096 6.93 9.336 5.752 22.358-2.73 30.31z"/><path fill="#2e2f42" d="m435.267 593.41-68.576-68.267c-6.638-6.638-17.426-6.638-24.082 0l-68.557 68.267c-3.208 3.226-5.019 7.56-5.019 12.099a17.04 17.04 0 0 0 5.019 12.101l68.557 68.267c3.328 3.31 7.698 4.966 12.05 4.966s8.72-1.656 12.032-4.966l68.576-68.267a17.134 17.134 0 0 0 5.034-12.101c0-4.539-1.81-8.891-5.034-12.099zm-80.608 56.286-44.374-44.187 44.374-44.186 44.39 44.186-44.39 44.187zM549.256 162.264l-8.243 33.146c2.27.563 55.605 14.456 55.605 68.763h34.134c-.002-64.549-53.301-94.894-81.496-101.909zM630.752 298.304h-34.134v34.136h34.134v-34.136z"/>
</symbol>
<!--instagram-->
<symbol id="instagram">
<path fill="#4d5ae5" d="M1024 511.997c0 141.386-57.308 269.386-149.962 362.04S653.384 1023.997 512 1023.997c-141.384 0-269.385-57.306-362.039-149.96S0 653.383 0 511.997c0-141.384 57.308-269.384 149.961-362.038S370.616-.002 512-.002s269.384 57.308 362.038 149.961S1024 370.613 1024 511.997z"/><path fill="#f4f4fd" d="M716.398 427.622c-.96-21.765-4.48-36.726-9.521-49.692-5.202-13.763-13.202-26.081-23.685-36.324-10.243-10.404-22.646-18.486-36.247-23.606-13.041-5.041-27.924-8.561-49.69-9.521-21.926-1.042-28.887-1.283-84.498-1.283s-62.572.241-84.416 1.201c-21.763.96-36.726 4.483-49.687 9.521-13.765 5.202-26.086 13.202-36.329 23.688-10.401 10.243-18.483 22.643-23.606 36.247-5.041 13.043-8.561 27.924-9.521 49.687-1.039 21.926-1.28 28.887-1.28 84.498s.241 62.572 1.201 84.416c.957 21.765 4.48 36.726 9.523 49.692 5.199 13.763 13.281 26.084 23.683 36.326 10.243 10.401 22.646 18.483 36.247 23.603 13.043 5.041 27.924 8.561 49.692 9.521 21.842.963 28.805 1.201 84.416 1.201s62.572-.238 84.416-1.201c21.763-.96 36.726-4.48 49.687-9.521a104.775 104.775 0 0 0 59.935-59.93c5.038-13.043 8.561-27.927 9.521-49.692.96-21.844 1.201-28.805 1.201-84.416s-.082-62.572-1.042-84.416zm-36.884 167.232c-.883 20.004-4.242 30.807-7.043 38.008a67.96 67.96 0 0 1-38.889 38.889c-7.201 2.801-18.081 6.159-38.008 7.037-21.604.963-28.083 1.201-82.734 1.201s-61.212-.238-82.737-1.201c-20.004-.878-30.807-4.237-38.008-7.037-8.881-3.282-16.963-8.484-23.524-15.286a63.656 63.656 0 0 1-15.283-23.524c-2.801-7.201-6.162-18.084-7.04-38.006-.963-21.604-1.201-28.088-1.201-82.739s.238-61.212 1.201-82.734c.878-20.004 4.239-30.807 7.04-38.008 3.282-8.883 8.481-16.963 15.365-23.526a63.623 63.623 0 0 1 23.524-15.281c7.201-2.801 18.084-6.159 38.006-7.043 21.604-.96 28.088-1.201 82.737-1.201 54.73 0 61.21.241 82.737 1.201 20.004.883 30.807 4.242 38.008 7.043 8.878 3.279 16.963 8.481 23.524 15.281a63.701 63.701 0 0 1 15.283 23.526c2.801 7.201 6.159 18.081 7.043 38.008.96 21.604 1.201 28.083 1.201 82.734s-.241 61.053-1.201 82.657z"/><path fill="#f4f4fd" d="M512.76 406.817c-58.089 0-105.221 47.127-105.221 105.221 0 58.092 47.132 105.221 105.221 105.221 58.092 0 105.219-47.13 105.219-105.221 0-58.094-47.127-105.221-105.219-105.221zm0 173.474c-37.686 0-68.255-30.564-68.255-68.252s30.569-68.255 68.255-68.255c37.688 0 68.252 30.566 68.252 68.255s-30.564 68.252-68.252 68.252zM646.707 402.657c0 13.565-10.998 24.566-24.566 24.566-13.565 0-24.566-11-24.566-24.566 0-13.568 11-24.563 24.566-24.563 13.568 0 24.566 10.995 24.566 24.563z"/>
</symbol>
<!--twitter-->
<symbol id="twitter">
<path fill="#4d5ae5" d="M1024 511.997c0 141.386-57.308 269.386-149.962 362.04S653.384 1023.997 512 1023.997c-141.384 0-269.385-57.306-362.039-149.96S0 653.383 0 511.997c0-141.384 57.308-269.384 149.961-362.038S370.616-.002 512-.002s269.384 57.308 362.038 149.961S1024 370.613 1024 511.997z"/><path fill="#f4f4fd" d="M716.8 384.996c-15.232 6.682-31.462 11.11-48.384 13.261 17.408-10.394 30.694-26.726 36.941-46.413-16.23 9.677-34.15 16.512-53.248 20.326-15.411-16.41-37.376-26.573-61.338-26.573-46.49 0-83.917 37.734-83.917 83.994 0 6.656.563 13.056 1.946 19.149-69.811-3.405-131.584-36.864-173.082-87.834-7.245 12.57-11.494 26.957-11.494 42.445 0 29.082 14.976 54.861 37.299 69.786-13.491-.256-26.726-4.173-37.939-10.342v.922c0 40.806 29.107 74.701 67.277 82.509-6.835 1.869-14.285 2.765-22.016 2.765-5.376 0-10.803-.307-15.898-1.434 10.88 33.254 41.754 57.702 78.464 58.496-28.57 22.349-64.845 35.814-104.115 35.814-6.886 0-13.491-.307-20.096-1.152 37.197 23.987 81.28 37.683 128.819 37.683 154.522 0 239.002-128 239.002-238.95 0-3.712-.128-7.296-.307-10.854 16.666-11.827 30.669-26.598 42.086-43.597z"/>
</symbol>
<!--facebook-->
<symbol id="facebook">
<path fill="#4d5ae5" d="M1024 511.997c0 141.386-57.308 269.386-149.962 362.04S653.384 1023.997 512 1023.997c-141.384 0-269.385-57.306-362.039-149.96S0 653.383 0 511.997c0-141.384 57.308-269.384 149.961-362.038S370.616-.002 512-.002s269.384 57.308 362.038 149.961S1024 370.613 1024 511.997z"/><path fill="#f4f4fd" d="M580.216 375.209h37.394v-65.126c-6.451-.888-28.639-2.885-54.477-2.885-53.914 0-90.847 33.912-90.847 96.241v57.359h-59.494v72.806h59.494v183.194h72.942V533.622h57.088l9.062-72.806h-66.166v-50.158c.015-21.043 5.683-35.448 35.003-35.448z"/>
</symbol>
<!--linkedin-->
<symbol id="linkedin">
<path fill="#4d5ae5" d="M1024 511.997c0 141.386-57.308 269.386-149.962 362.04S653.384 1023.997 512 1023.997c-141.384 0-269.385-57.306-362.039-149.96S0 653.383 0 511.997c0-141.384 57.308-269.384 149.961-362.038S370.616-.002 512-.002s269.384 57.308 362.038 149.961S1024 370.613 1024 511.997z"/><path fill="#f4f4fd" d="M716.7 716.8v-.018h.102V566.561c0-73.49-15.821-130.099-101.734-130.099-41.3 0-69.018 22.664-80.333 44.152h-1.196v-37.292H452.08v273.459h84.823V581.375c0-35.653 6.758-70.129 50.908-70.129 43.505 0 44.152 40.689 44.152 72.415v133.138h84.736zM313.958 443.338h84.925v273.459h-84.925V443.338zM356.388 307.197c-27.154 0-49.185 22.034-49.185 49.188 0 27.151 22.031 49.646 49.185 49.646s49.185-22.495 49.185-49.646c-.015-27.154-22.049-49.188-49.185-49.188z"/>
</symbol>
</svg>